<svg width="86" height="186" viewBox="0 0 86 186" fill="none" xmlns="http://www.w3.org/2000/svg">
<rect x="0.5" y="41.5" width="85" height="104" stroke="black"/>
<mask id="path-2-outside-1_1_7" maskUnits="userSpaceOnUse" x="14" y="54" width="58" height="73" fill="black">
<rect fill="white" x="14" y="54" width="58" height="73"/>
<path d="M50.248 55.36C56.328 55.36 61.288 57.024 65.128 60.352C69.032 63.616 70.984 68.544 70.984 75.136C70.984 80.384 69.224 85.28 65.704 89.824C62.184 94.304 57.672 97.888 52.168 100.576C46.728 103.264 41.256 104.608 35.752 104.608C35.176 104.608 34.824 104.544 34.696 104.416L35.176 101.824C39.464 101.376 43.656 100.032 47.752 97.792C51.848 95.552 55.176 92.64 57.736 89.056C60.36 85.408 61.672 81.376 61.672 76.96C61.672 72.16 60.2 68.32 57.256 65.44C54.376 62.56 50.088 61.12 44.392 61.12C39.976 61.12 35.304 62.176 30.376 64.288C25.512 66.336 21.256 69.024 17.608 72.352L15.784 70.336C20.456 65.984 25.896 62.4 32.104 59.584C38.376 56.768 44.424 55.36 50.248 55.36ZM30.76 121.888L21.928 125.248V72.736L30.76 69.28V121.888Z"/>
</mask>
<path d="M50.248 55.36C56.328 55.36 61.288 57.024 65.128 60.352C69.032 63.616 70.984 68.544 70.984 75.136C70.984 80.384 69.224 85.28 65.704 89.824C62.184 94.304 57.672 97.888 52.168 100.576C46.728 103.264 41.256 104.608 35.752 104.608C35.176 104.608 34.824 104.544 34.696 104.416L35.176 101.824C39.464 101.376 43.656 100.032 47.752 97.792C51.848 95.552 55.176 92.64 57.736 89.056C60.36 85.408 61.672 81.376 61.672 76.96C61.672 72.16 60.2 68.32 57.256 65.44C54.376 62.56 50.088 61.12 44.392 61.12C39.976 61.12 35.304 62.176 30.376 64.288C25.512 66.336 21.256 69.024 17.608 72.352L15.784 70.336C20.456 65.984 25.896 62.4 32.104 59.584C38.376 56.768 44.424 55.36 50.248 55.36ZM30.76 121.888L21.928 125.248V72.736L30.76 69.28V121.888Z" fill="black"/>
<path d="M65.128 60.352L64.4731 61.1077L64.4798 61.1135L64.4866 61.1192L65.128 60.352ZM65.704 89.824L66.4903 90.4418L66.4946 90.4364L65.704 89.824ZM52.168 100.576L51.7292 99.6774L51.725 99.6795L52.168 100.576ZM34.696 104.416L33.7127 104.234L33.6169 104.751L33.9889 105.123L34.696 104.416ZM35.176 101.824L35.0721 100.829L34.3288 100.907L34.1927 101.642L35.176 101.824ZM47.752 97.792L48.2318 98.6694L48.2318 98.6694L47.752 97.792ZM57.736 89.056L56.9242 88.4721L56.9223 88.4748L57.736 89.056ZM57.256 65.44L56.5489 66.1471L56.5567 66.1548L57.256 65.44ZM30.376 64.288L30.7641 65.2097L30.7699 65.2071L30.376 64.288ZM17.608 72.352L16.8665 73.0229L17.5401 73.7675L18.282 73.0908L17.608 72.352ZM15.784 70.336L15.1024 69.6043L14.3812 70.2761L15.0425 71.0069L15.784 70.336ZM32.104 59.584L31.6944 58.6717L31.6909 58.6733L32.104 59.584ZM30.76 121.888L31.1156 122.823L31.76 122.577V121.888H30.76ZM21.928 125.248H20.928V126.698L22.2836 126.183L21.928 125.248ZM21.928 72.736L21.5636 71.8048L20.928 72.0535V72.736H21.928ZM30.76 69.28H31.76V67.8149L30.3956 68.3488L30.76 69.28ZM50.248 56.36C56.137 56.36 60.8491 57.967 64.4731 61.1077L65.7829 59.5963C61.7269 56.081 56.519 54.36 50.248 54.36V56.36ZM64.4866 61.1192C68.0999 64.1401 69.984 68.7462 69.984 75.136H71.984C71.984 68.3418 69.9641 63.0918 65.7694 59.5848L64.4866 61.1192ZM69.984 75.136C69.984 80.1409 68.3114 84.8252 64.9135 89.2116L66.4946 90.4364C70.1366 85.7348 71.984 80.6271 71.984 75.136H69.984ZM64.9177 89.2062C61.4977 93.5588 57.108 97.0505 51.7292 99.6774L52.6068 101.475C58.236 98.7255 62.8703 95.0492 66.4903 90.4418L64.9177 89.2062ZM51.725 99.6795C46.4085 102.306 41.0871 103.608 35.752 103.608V105.608C41.4249 105.608 47.0475 104.222 52.611 101.473L51.725 99.6795ZM35.752 103.608C35.4925 103.608 35.3274 103.593 35.2349 103.576C35.1896 103.568 35.1847 103.563 35.2054 103.572C35.2214 103.578 35.3076 103.613 35.4031 103.709L33.9889 105.123C34.2809 105.415 34.664 105.505 34.8771 105.544C35.1366 105.591 35.4355 105.608 35.752 105.608V103.608ZM35.6793 104.598L36.1593 102.006L34.1927 101.642L33.7127 104.234L35.6793 104.598ZM35.2799 102.819C39.7103 102.356 44.0292 100.968 48.2318 98.6694L47.2722 96.9146C43.2828 99.0963 39.2177 100.396 35.0721 100.829L35.2799 102.819ZM48.2318 98.6694C52.4519 96.3615 55.8969 93.3512 58.5497 89.6372L56.9223 88.4748C54.4551 91.9288 51.2441 94.7425 47.2722 96.9146L48.2318 98.6694ZM58.5478 89.6399C61.2919 85.825 62.672 81.5895 62.672 76.96H60.672C60.672 81.1625 59.4281 84.991 56.9242 88.4721L58.5478 89.6399ZM62.672 76.96C62.672 71.9392 61.1236 67.8246 57.9553 64.7252L56.5567 66.1548C59.2764 68.8154 60.672 72.3808 60.672 76.96H62.672ZM57.9631 64.7329C54.8313 61.6011 50.2459 60.12 44.392 60.12V62.12C49.9301 62.12 53.9207 63.5189 56.5489 66.1471L57.9631 64.7329ZM44.392 60.12C39.8149 60.12 35.0085 61.2147 29.9821 63.3689L30.7699 65.2071C35.5995 63.1373 40.1371 62.12 44.392 62.12V60.12ZM29.9879 63.3664C25.0262 65.4555 20.6719 68.2033 16.934 71.6132L18.282 73.0908C21.8401 69.8447 25.9978 67.2165 30.7641 65.2096L29.9879 63.3664ZM18.3495 71.6811L16.5255 69.6651L15.0425 71.0069L16.8665 73.0229L18.3495 71.6811ZM16.4656 71.0677C21.0532 66.7944 26.401 63.269 32.5171 60.4947L31.6909 58.6733C25.391 61.531 19.8588 65.1736 15.1024 69.6043L16.4656 71.0677ZM32.5136 60.4963C38.6798 57.7278 44.5884 56.36 50.248 56.36V54.36C44.2596 54.36 38.0723 55.8082 31.6944 58.6717L32.5136 60.4963ZM30.4044 120.953L21.5724 124.313L22.2836 126.183L31.1156 122.823L30.4044 120.953ZM22.928 125.248V72.736H20.928V125.248H22.928ZM22.2924 73.6672L31.1244 70.2112L30.3956 68.3488L21.5636 71.8048L22.2924 73.6672ZM29.76 69.28V121.888H31.76V69.28H29.76Z" fill="black" mask="url(#path-2-outside-1_1_7)"/>
<path d="M13.24 169.2C13.08 169.2 12.9133 169.173 12.74 169.12C12.58 169.067 12.4467 168.94 12.34 168.74C12.2333 168.54 12.18 168.233 12.18 167.82C12.18 167.487 12.2067 167.067 12.26 166.56C12.3267 166.04 12.4067 165.487 12.5 164.9C12.5933 164.3 12.6667 163.667 12.72 163C12.7867 162.333 12.82 161.66 12.82 160.98C12.82 160.713 12.8133 160.427 12.8 160.12C12.7867 159.813 12.76 159.513 12.72 159.22C12.6267 159.273 12.5333 159.32 12.44 159.36C12.36 159.387 12.28 159.4 12.2 159.4C11.9733 159.4 11.86 159.18 11.86 158.74C11.86 158.34 11.9467 158.007 12.12 157.74C12.3067 157.46 12.64 157.193 13.12 156.94C13.5867 156.687 14.1333 156.48 14.76 156.32C15.4 156.147 16.0467 156.06 16.7 156.06C17.9933 156.06 19.0267 156.4 19.8 157.08C20.5867 157.76 20.98 158.667 20.98 159.8C20.98 160.493 20.84 161.133 20.56 161.72C20.28 162.307 19.9067 162.82 19.44 163.26C18.9867 163.687 18.4867 164.02 17.94 164.26C17.4067 164.487 16.88 164.6 16.36 164.6C15.8667 164.6 15.5333 164.493 15.36 164.28C15.1867 164.053 15.1 163.733 15.1 163.32C15.1 163.12 15.12 162.94 15.16 162.78C15.2133 162.607 15.32 162.52 15.48 162.52C15.52 162.52 15.58 162.527 15.66 162.54C15.74 162.553 15.82 162.573 15.9 162.6C15.98 162.613 16.0933 162.633 16.24 162.66C16.3867 162.687 16.5533 162.7 16.74 162.7C17.4733 162.7 18.0667 162.493 18.52 162.08C18.9867 161.667 19.22 161.133 19.22 160.48C19.22 159.8 18.9667 159.267 18.46 158.88C17.9533 158.493 17.3 158.3 16.5 158.3C16.2067 158.3 15.9067 158.327 15.6 158.38C15.2933 158.42 14.9867 158.48 14.68 158.56C14.64 159.44 14.5467 160.44 14.4 161.56C14.32 162.227 14.2467 162.887 14.18 163.54C14.1267 164.18 14.1 164.767 14.1 165.3C14.1 165.767 14.14 166.18 14.22 166.54C14.3133 166.887 14.4933 167.187 14.76 167.44C14.9467 167.627 15.04 167.827 15.04 168.04C15.04 168.333 14.8733 168.6 14.54 168.84C14.2067 169.08 13.7733 169.2 13.24 169.2ZM23.8844 169.26C22.871 169.26 22.0777 168.973 21.5044 168.4C20.9444 167.813 20.6644 167 20.6644 165.96C20.6644 165.013 20.871 164.153 21.2844 163.38C21.6977 162.607 22.251 161.993 22.9444 161.54C23.651 161.073 24.4244 160.84 25.2644 160.84C26.0644 160.84 26.7044 161.04 27.1844 161.44C27.6644 161.827 27.9044 162.347 27.9044 163C27.9044 163.52 27.7444 164 27.4244 164.44C27.1044 164.88 26.6777 165.233 26.1444 165.5C25.611 165.753 25.0177 165.88 24.3644 165.88C23.5644 165.88 22.911 165.7 22.4044 165.34C22.4177 165.953 22.6244 166.447 23.0244 166.82C23.4377 167.193 23.9644 167.38 24.6044 167.38C24.991 167.38 25.3844 167.313 25.7844 167.18C26.1977 167.033 26.551 166.84 26.8444 166.6C27.031 166.44 27.2044 166.36 27.3644 166.36C27.4977 166.36 27.6044 166.407 27.6844 166.5C27.7777 166.58 27.8244 166.687 27.8244 166.82C27.8244 167.113 27.571 167.5 27.0644 167.98C26.171 168.833 25.111 169.26 23.8844 169.26ZM24.1844 164.56C24.6644 164.56 25.0644 164.46 25.3844 164.26C25.7044 164.06 25.8644 163.807 25.8644 163.5C25.8644 163.247 25.7577 163.053 25.5444 162.92C25.331 162.773 25.0377 162.7 24.6644 162.7C24.171 162.7 23.7377 162.833 23.3644 163.1C23.0044 163.353 22.7444 163.713 22.5844 164.18C22.771 164.3 23.011 164.393 23.3044 164.46C23.5977 164.527 23.891 164.56 24.1844 164.56ZM30.6358 169.22C30.4224 169.22 30.2491 169.18 30.1158 169.1C29.9958 169.033 29.9558 168.913 29.9958 168.74C30.1424 168.167 30.2624 167.587 30.3558 167C30.4624 166.4 30.5158 165.827 30.5158 165.28C30.5158 164.573 30.4691 164.06 30.3758 163.74C30.2958 163.407 30.1824 163.18 30.0358 163.06C29.8891 162.927 29.7091 162.827 29.4958 162.76C29.4024 162.72 29.3158 162.667 29.2358 162.6C29.1691 162.533 29.1358 162.44 29.1358 162.32C29.1358 162.133 29.2091 161.927 29.3558 161.7C29.5024 161.473 29.7091 161.28 29.9758 161.12C30.2424 160.947 30.5491 160.86 30.8958 160.86C31.3491 160.86 31.6624 161.02 31.8358 161.34C32.0224 161.647 32.1158 162.053 32.1158 162.56C32.3558 162.027 32.6491 161.607 32.9958 161.3C33.3558 160.98 33.8024 160.82 34.3358 160.82C34.6958 160.82 34.9958 160.9 35.2358 161.06C35.4758 161.22 35.5958 161.48 35.5958 161.84C35.5958 162.2 35.4758 162.54 35.2358 162.86C35.0091 163.167 34.7758 163.32 34.5358 163.32C34.4958 163.32 34.4491 163.313 34.3958 163.3C34.3424 163.287 34.2958 163.253 34.2558 163.2C34.0824 162.987 33.8691 162.88 33.6158 162.88C33.2291 162.88 32.8891 163.133 32.5958 163.64C32.3024 164.147 32.1424 164.847 32.1158 165.74C32.1291 166.073 32.1358 166.413 32.1358 166.76C32.1491 167.107 32.1558 167.36 32.1558 167.52C32.1558 168.013 32.0158 168.42 31.7358 168.74C31.4691 169.06 31.1024 169.22 30.6358 169.22ZM38.0884 159.06C37.7151 159.047 37.4151 158.933 37.1884 158.72C36.9618 158.507 36.8484 158.207 36.8484 157.82C36.8618 157.407 37.0018 157.073 37.2684 156.82C37.5351 156.553 37.8751 156.427 38.2884 156.44C38.6751 156.453 38.9751 156.567 39.1884 156.78C39.4151 156.993 39.5218 157.293 39.5084 157.68C39.4951 158.08 39.3618 158.413 39.1084 158.68C38.8551 158.933 38.5151 159.06 38.0884 159.06ZM38.1084 169.2C37.7084 169.2 37.3951 169.093 37.1684 168.88C36.9418 168.653 36.8284 168.273 36.8284 167.74C36.8284 167.433 36.8551 167.133 36.9084 166.84C36.9751 166.547 37.0484 166.26 37.1284 165.98C37.2218 165.687 37.2951 165.387 37.3484 165.08C37.4151 164.773 37.4484 164.447 37.4484 164.1C37.4484 163.86 37.4151 163.633 37.3484 163.42C37.2818 163.193 37.1351 163.027 36.9084 162.92C36.7351 162.827 36.5818 162.733 36.4484 162.64C36.3284 162.533 36.2684 162.4 36.2684 162.24C36.2684 162.053 36.3551 161.853 36.5284 161.64C36.7018 161.427 36.9284 161.247 37.2084 161.1C37.5018 160.94 37.8018 160.86 38.1084 160.86C38.4418 160.86 38.6818 160.947 38.8284 161.12C38.9884 161.293 39.0951 161.513 39.1484 161.78C39.2018 162.047 39.2284 162.32 39.2284 162.6C39.2284 163.027 39.1951 163.447 39.1284 163.86C39.0618 164.26 38.9951 164.633 38.9284 164.98C38.8751 165.233 38.8351 165.467 38.8084 165.68C38.7818 165.893 38.7684 166.093 38.7684 166.28C38.7684 166.613 38.8484 166.867 39.0084 167.04C39.1684 167.2 39.3951 167.353 39.6884 167.5C39.8084 167.567 39.8684 167.667 39.8684 167.8C39.8684 167.907 39.8151 168.073 39.7084 168.3C39.6018 168.527 39.4151 168.733 39.1484 168.92C38.8951 169.107 38.5484 169.2 38.1084 169.2ZM48.24 169.2C48.08 169.2 47.9133 169.173 47.74 169.12C47.58 169.067 47.4467 168.94 47.34 168.74C47.2333 168.54 47.18 168.233 47.18 167.82C47.18 167.487 47.2067 167.067 47.26 166.56C47.3267 166.04 47.4067 165.487 47.5 164.9C47.5933 164.3 47.6667 163.667 47.72 163C47.7867 162.333 47.82 161.66 47.82 160.98C47.82 160.713 47.8133 160.427 47.8 160.12C47.7867 159.813 47.76 159.513 47.72 159.22C47.6267 159.273 47.5333 159.32 47.44 159.36C47.36 159.387 47.28 159.4 47.2 159.4C46.9733 159.4 46.86 159.18 46.86 158.74C46.86 158.34 46.9467 158.007 47.12 157.74C47.3067 157.46 47.64 157.193 48.12 156.94C48.5867 156.687 49.1333 156.48 49.76 156.32C50.4 156.147 51.0467 156.06 51.7 156.06C52.9933 156.06 54.0267 156.4 54.8 157.08C55.5867 157.76 55.98 158.667 55.98 159.8C55.98 160.493 55.84 161.133 55.56 161.72C55.28 162.307 54.9067 162.82 54.44 163.26C53.9867 163.687 53.4867 164.02 52.94 164.26C52.4067 164.487 51.88 164.6 51.36 164.6C50.8667 164.6 50.5333 164.493 50.36 164.28C50.1867 164.053 50.1 163.733 50.1 163.32C50.1 163.12 50.12 162.94 50.16 162.78C50.2133 162.607 50.32 162.52 50.48 162.52C50.52 162.52 50.58 162.527 50.66 162.54C50.74 162.553 50.82 162.573 50.9 162.6C50.98 162.613 51.0933 162.633 51.24 162.66C51.3867 162.687 51.5533 162.7 51.74 162.7C52.4733 162.7 53.0667 162.493 53.52 162.08C53.9867 161.667 54.22 161.133 54.22 160.48C54.22 159.8 53.9667 159.267 53.46 158.88C52.9533 158.493 52.3 158.3 51.5 158.3C51.2067 158.3 50.9067 158.327 50.6 158.38C50.2933 158.42 49.9867 158.48 49.68 158.56C49.64 159.44 49.5467 160.44 49.4 161.56C49.32 162.227 49.2467 162.887 49.18 163.54C49.1267 164.18 49.1 164.767 49.1 165.3C49.1 165.767 49.14 166.18 49.22 166.54C49.3133 166.887 49.4933 167.187 49.76 167.44C49.9467 167.627 50.04 167.827 50.04 168.04C50.04 168.333 49.8733 168.6 49.54 168.84C49.2067 169.08 48.7733 169.2 48.24 169.2ZM58.8844 169.26C57.871 169.26 57.0777 168.973 56.5044 168.4C55.9444 167.813 55.6644 167 55.6644 165.96C55.6644 165.013 55.871 164.153 56.2844 163.38C56.6977 162.607 57.251 161.993 57.9444 161.54C58.651 161.073 59.4244 160.84 60.2644 160.84C61.0644 160.84 61.7044 161.04 62.1844 161.44C62.6644 161.827 62.9044 162.347 62.9044 163C62.9044 163.52 62.7444 164 62.4244 164.44C62.1044 164.88 61.6777 165.233 61.1444 165.5C60.611 165.753 60.0177 165.88 59.3644 165.88C58.5644 165.88 57.911 165.7 57.4044 165.34C57.4177 165.953 57.6244 166.447 58.0244 166.82C58.4377 167.193 58.9644 167.38 59.6044 167.38C59.991 167.38 60.3844 167.313 60.7844 167.18C61.1977 167.033 61.551 166.84 61.8444 166.6C62.031 166.44 62.2044 166.36 62.3644 166.36C62.4977 166.36 62.6044 166.407 62.6844 166.5C62.7777 166.58 62.8244 166.687 62.8244 166.82C62.8244 167.113 62.571 167.5 62.0644 167.98C61.171 168.833 60.111 169.26 58.8844 169.26ZM59.1844 164.56C59.6644 164.56 60.0644 164.46 60.3844 164.26C60.7044 164.06 60.8644 163.807 60.8644 163.5C60.8644 163.247 60.7577 163.053 60.5444 162.92C60.331 162.773 60.0377 162.7 59.6644 162.7C59.171 162.7 58.7377 162.833 58.3644 163.1C58.0044 163.353 57.7444 163.713 57.5844 164.18C57.771 164.3 58.011 164.393 58.3044 164.46C58.5977 164.527 58.891 164.56 59.1844 164.56ZM65.6358 169.22C65.4224 169.22 65.2491 169.18 65.1158 169.1C64.9958 169.033 64.9558 168.913 64.9958 168.74C65.1424 168.167 65.2624 167.587 65.3558 167C65.4624 166.4 65.5158 165.827 65.5158 165.28C65.5158 164.573 65.4691 164.06 65.3758 163.74C65.2958 163.407 65.1824 163.18 65.0358 163.06C64.8891 162.927 64.7091 162.827 64.4958 162.76C64.4024 162.72 64.3158 162.667 64.2358 162.6C64.1691 162.533 64.1358 162.44 64.1358 162.32C64.1358 162.133 64.2091 161.927 64.3558 161.7C64.5024 161.473 64.7091 161.28 64.9758 161.12C65.2424 160.947 65.5491 160.86 65.8958 160.86C66.3491 160.86 66.6624 161.02 66.8358 161.34C67.0224 161.647 67.1158 162.053 67.1158 162.56C67.3558 162.027 67.6491 161.607 67.9958 161.3C68.3558 160.98 68.8024 160.82 69.3358 160.82C69.6958 160.82 69.9958 160.9 70.2358 161.06C70.4758 161.22 70.5958 161.48 70.5958 161.84C70.5958 162.2 70.4758 162.54 70.2358 162.86C70.0091 163.167 69.7758 163.32 69.5358 163.32C69.4958 163.32 69.4491 163.313 69.3958 163.3C69.3424 163.287 69.2958 163.253 69.2558 163.2C69.0824 162.987 68.8691 162.88 68.6158 162.88C68.2291 162.88 67.8891 163.133 67.5958 163.64C67.3024 164.147 67.1424 164.847 67.1158 165.74C67.1291 166.073 67.1358 166.413 67.1358 166.76C67.1491 167.107 67.1558 167.36 67.1558 167.52C67.1558 168.013 67.0158 168.42 66.7358 168.74C66.4691 169.06 66.1024 169.22 65.6358 169.22ZM73.0884 159.06C72.7151 159.047 72.4151 158.933 72.1884 158.72C71.9618 158.507 71.8484 158.207 71.8484 157.82C71.8618 157.407 72.0018 157.073 72.2684 156.82C72.5351 156.553 72.8751 156.427 73.2884 156.44C73.6751 156.453 73.9751 156.567 74.1884 156.78C74.4151 156.993 74.5218 157.293 74.5084 157.68C74.4951 158.08 74.3618 158.413 74.1084 158.68C73.8551 158.933 73.5151 159.06 73.0884 159.06ZM73.1084 169.2C72.7084 169.2 72.3951 169.093 72.1684 168.88C71.9418 168.653 71.8284 168.273 71.8284 167.74C71.8284 167.433 71.8551 167.133 71.9084 166.84C71.9751 166.547 72.0484 166.26 72.1284 165.98C72.2218 165.687 72.2951 165.387 72.3484 165.08C72.4151 164.773 72.4484 164.447 72.4484 164.1C72.4484 163.86 72.4151 163.633 72.3484 163.42C72.2818 163.193 72.1351 163.027 71.9084 162.92C71.7351 162.827 71.5818 162.733 71.4484 162.64C71.3284 162.533 71.2684 162.4 71.2684 162.24C71.2684 162.053 71.3551 161.853 71.5284 161.64C71.7018 161.427 71.9284 161.247 72.2084 161.1C72.5018 160.94 72.8018 160.86 73.1084 160.86C73.4418 160.86 73.6818 160.947 73.8284 161.12C73.9884 161.293 74.0951 161.513 74.1484 161.78C74.2018 162.047 74.2284 162.32 74.2284 162.6C74.2284 163.027 74.1951 163.447 74.1284 163.86C74.0618 164.26 73.9951 164.633 73.9284 164.98C73.8751 165.233 73.8351 165.467 73.8084 165.68C73.7818 165.893 73.7684 166.093 73.7684 166.28C73.7684 166.613 73.8484 166.867 74.0084 167.04C74.1684 167.2 74.3951 167.353 74.6884 167.5C74.8084 167.567 74.8684 167.667 74.8684 167.8C74.8684 167.907 74.8151 168.073 74.7084 168.3C74.6018 168.527 74.4151 168.733 74.1484 168.92C73.8951 169.107 73.5484 169.2 73.1084 169.2Z" fill="black"/>
</svg>
